<svg xmlns="http://www.w3.org/2000/svg" viewBox="0 0 1000 1000"><path d="M538 745.4l-3.5-30.5H533c-13.5 19-39.5 36-74 36-49 0-74-34.5-74-69.5 0-58.5 52-90.5 145.5-90v-5c0-20-5.5-56-55-56-22.5 0-46 7-63 18l-10-29c20-13 49-21.5 79.5-21.5 74 0 92 50.5 92 99v90.5c0 21 1 41.5 4 58h-40zm-6.5-123.5c-48-1-102.5 7.5-102.5 54.5 0 28.5 19 42 41.5 42 31.5 0 51.5-20 58.5-40.5 1.5-4.5 2.5-9.5 2.5-14v-42zM548.3 486.9l-2.9-2.1 35.4-48.3c7.2-9.9 21.1-12 30.9-4.8l4.7 3.5-34.1 46.4c-7.8 10.9-23.1 13.3-34 5.3z"/></svg>